<svg xmlns="http://www.w3.org/2000/svg" xmlns:xlink="http://www.w3.org/1999/xlink" viewBox="0 0 1061.904 589.026">
  <defs>
    <style>
      .cls-1 {
        fill: #89eca3;
      }

      .cls-2 {
        filter: url(#bg-header);
      }
    </style>
    <filter id="bg-header" x="0" y="0" width="1061.904" height="589.026" filterUnits="userSpaceOnUse">
      <feOffset dy="6" input="SourceAlpha"/>
      <feGaussianBlur stdDeviation="3" result="blur"/>
      <feFlood flood-opacity="0.161"/>
      <feComposite operator="in" in2="blur"/>
      <feComposite in="SourceGraphic"/>
    </filter>
  </defs>
  <g class="cls-2" transform="matrix(1, 0, 0, 1, 0, 0)">
    <path id="bg-header-2" data-name="bg-header" class="cls-1" d="M1024.7,774.026c-12.352,0-24.749-.369-36.848-1.1-11.91-.716-23.861-1.8-35.522-3.225A547.963,547.963,0,0,1,885.2,757.257a521.894,521.894,0,0,1-62.024-19.8,517.179,517.179,0,0,1-57.046-26.375c-67.969-36.6-128.861-89-180.985-155.747-11.805-15.116-23.276-31.137-34.093-47.619-10.409-15.859-20.466-32.527-29.892-49.541A848.852,848.852,0,0,1,473.47,356.428,882.493,882.493,0,0,1,441.033,256.3c-4.623-17.87-8.639-35.8-11.937-53.3H1473V633.669c-.763.6-1.42,1.115-2.007,1.571-9.671,7.519-20.052,14.839-30.853,21.756-10.33,6.615-21.364,13.066-32.8,19.173-10.856,5.8-22.443,11.49-34.44,16.911-11.274,5.094-23.315,10.131-35.786,14.972-22.253,8.636-46.593,16.95-74.411,25.417-26.846,8.173-53.588,15.47-76.207,21.531-14.24,3.219-28.551,6.069-42.538,8.471-13.773,2.365-27.613,4.36-41.135,5.929-13.317,1.546-26.69,2.719-39.747,3.486C1050.226,773.643,1037.314,774.026,1024.7,774.026Z" transform="translate(-420.1 -200)"/>
  </g>
</svg>
