<svg xmlns="http://www.w3.org/2000/svg" width="35.736" height="35.736" viewBox="0 0 35.736 35.736">
  <g id="Indicator" transform="translate(-794 -951)">
    <g id="Path_3" data-name="Path 3" transform="translate(794 951)" fill="none">
      <path d="M17.868,0A17.868,17.868,0,1,1,0,17.868,17.868,17.868,0,0,1,17.868,0Z" stroke="none"/>
      <path d="M 17.86785888671875 1 C 13.36228942871094 1 9.126398086547852 2.754558563232422 5.940479278564453 5.940479278564453 C 2.754558563232422 9.126398086547852 1 13.36228942871094 1 17.86785888671875 C 1 22.37342834472656 2.754558563232422 26.60931777954102 5.940479278564453 29.79523849487305 C 9.126398086547852 32.98115921020508 13.36228942871094 34.7357177734375 17.86785888671875 34.7357177734375 C 22.37342834472656 34.7357177734375 26.60931777954102 32.98115921020508 29.79523849487305 29.79523849487305 C 32.98115921020508 26.60931777954102 34.7357177734375 22.37342834472656 34.7357177734375 17.86785888671875 C 34.7357177734375 13.36228942871094 32.98115921020508 9.126398086547852 29.79523849487305 5.940479278564453 C 26.60931777954102 2.754558563232422 22.37342834472656 1 17.86785888671875 1 M 17.86785888671875 0 C 27.73600959777832 0 35.7357177734375 7.99970817565918 35.7357177734375 17.86785888671875 C 35.7357177734375 27.73600959777832 27.73600959777832 35.7357177734375 17.86785888671875 35.7357177734375 C 7.99970817565918 35.7357177734375 0 27.73600959777832 0 17.86785888671875 C 0 7.99970817565918 7.99970817565918 0 17.86785888671875 0 Z" stroke="none" fill="#fff"/>
    </g>
    <line id="Line_1" data-name="Line 1" y2="20.399" transform="translate(811.942 957.626)" fill="none" stroke="#fff" stroke-linecap="round" stroke-width="1"/>
    <line id="Line_2" data-name="Line 2" x2="5.658" y2="4.765" transform="translate(806.284 973.26)" fill="none" stroke="#fff" stroke-linecap="round" stroke-width="1"/>
    <line id="Line_3" data-name="Line 3" x1="5.807" y2="4.765" transform="translate(811.942 973.26)" fill="none" stroke="#fff" stroke-linecap="round" stroke-width="1"/>
  </g>
</svg>
