<svg xmlns="http://www.w3.org/2000/svg" xmlns:xlink="http://www.w3.org/1999/xlink" viewBox="0 0 205.5 141.379">
  <defs>
    <style>
      .cls-1 {
        fill: #89eca3;
      }

      .cls-2 {
        filter: url(#bg-header-mobile);
      }
    </style>
    <filter id="bg-header-mobile" x="0" y="0" width="205.5" height="141.379" filterUnits="userSpaceOnUse">
      <feOffset dy="6" input="SourceAlpha"/>
      <feGaussianBlur stdDeviation="3" result="blur"/>
      <feFlood flood-opacity="0.161"/>
      <feComposite operator="in" in2="blur"/>
      <feComposite in="SourceGraphic"/>
    </filter>
  </defs>
  <g class="cls-2" transform="matrix(1, 0, 0, 1, 0, 0)">
    <path id="bg-header-mobile-2" data-name="bg-header-mobile" class="cls-1" d="M107.461,289.38c-2.205,0-4.419-.075-6.579-.222-2.128-.145-4.261-.364-6.342-.652a87.619,87.619,0,0,1-11.986-2.518,85.512,85.512,0,0,1-11.074-4A87.732,87.732,0,0,1,61.3,276.649c-12.135-7.4-23.007-18-32.313-31.5-2.107-3.056-4.155-6.3-6.087-9.631-1.859-3.209-3.655-6.58-5.337-10.02A182.944,182.944,0,0,1,9.044,204.92a195.844,195.844,0,0,1-5.791-20.251A176.491,176.491,0,0,1,0,166H187.5v94.992l-.358.318c-1.727,1.521-3.58,3-5.509,4.4-1.845,1.338-3.815,2.643-5.855,3.878-1.94,1.174-4.009,2.325-6.149,3.42-2.014,1.031-4.164,2.05-6.389,3.028-3.974,1.747-8.32,3.429-13.285,5.141-4.793,1.653-9.568,3.129-13.606,4.355-2.544.651-5.1,1.228-7.595,1.713-2.458.478-4.929.882-7.344,1.2-2.378.313-4.765.55-7.1.705C112.017,289.3,109.712,289.38,107.461,289.38Z" transform="translate(9 -163)"/>
  </g>
</svg>
