<svg xmlns="http://www.w3.org/2000/svg" width="111.089" height="27.771" viewBox="0 0 111.089 27.771">
  <g id="git_logo" transform="translate(4 -5.343)">
    <g id="Group_1" data-name="Group 1" transform="translate(-4)">
      <g id="git_logo-2" data-name="git_logo">
        <path id="Path_2" data-name="Path 2" d="M12.646,0C19.63,0,25.539,7.024,25.292,12.522S21.938,24.259,12.646,24.216,1.316,18.571,0,12.522A12.584,12.584,0,0,1,12.646,0Z" transform="translate(1.061 8.277)" fill="#fff"/>
        <path id="Path_1" data-name="Path 1" d="M25.669,12.217A13.7,13.7,0,0,0,20.662,7.21a13.456,13.456,0,0,0-6.905-1.845A13.457,13.457,0,0,0,6.852,7.21a13.7,13.7,0,0,0-5.007,5.007A13.457,13.457,0,0,0,0,19.122a13.37,13.37,0,0,0,2.624,8.087A13.473,13.473,0,0,0,9.4,32.18a.8.8,0,0,0,.716-.125.7.7,0,0,0,.233-.537q0-.054-.009-.967t-.009-1.594l-.412.071a5.255,5.255,0,0,1-.994.063,7.575,7.575,0,0,1-1.245-.125,2.782,2.782,0,0,1-1.2-.537,2.273,2.273,0,0,1-.788-1.1l-.179-.412A4.476,4.476,0,0,0,4.953,26a2.162,2.162,0,0,0-.779-.681l-.125-.09a1.315,1.315,0,0,1-.233-.215.983.983,0,0,1-.161-.251q-.054-.126.09-.206a1.162,1.162,0,0,1,.519-.08l.358.054a2.615,2.615,0,0,1,.887.43,2.891,2.891,0,0,1,.869.931,3.158,3.158,0,0,0,.994,1.12,2.109,2.109,0,0,0,1.173.385,5.094,5.094,0,0,0,1.021-.089,3.563,3.563,0,0,0,.806-.269,2.9,2.9,0,0,1,.878-1.845,12.265,12.265,0,0,1-1.836-.322,7.31,7.31,0,0,1-1.684-.7,4.822,4.822,0,0,1-1.442-1.2,5.767,5.767,0,0,1-.94-1.881A8.944,8.944,0,0,1,4.979,18.4a5.225,5.225,0,0,1,1.415-3.69,4.815,4.815,0,0,1,.125-3.654,2.51,2.51,0,0,1,1.54.242,10.77,10.77,0,0,1,1.5.69q.475.286.761.484a12.937,12.937,0,0,1,6.879,0l.681-.43a9.64,9.64,0,0,1,1.648-.788,2.347,2.347,0,0,1,1.451-.2,4.769,4.769,0,0,1,.143,3.654,5.226,5.226,0,0,1,1.415,3.69,9.044,9.044,0,0,1-.367,2.7,5.543,5.543,0,0,1-.949,1.881,5.008,5.008,0,0,1-1.451,1.191,7.324,7.324,0,0,1-1.684.7,12.253,12.253,0,0,1-1.836.323,3.19,3.19,0,0,1,.931,2.543v3.779a.714.714,0,0,0,.224.537.778.778,0,0,0,.707.125,13.472,13.472,0,0,0,6.78-4.971,13.372,13.372,0,0,0,2.624-8.087A13.468,13.468,0,0,0,25.669,12.217Z" transform="translate(0 -0.022)"/>
      </g>
      <text id="Github" transform="translate(34.088 27.114)" fill="#fff" font-size="22" font-family="Montserrat-Regular, Montserrat"><tspan x="0" y="0">Github</tspan></text>
    </g>
  </g>
</svg>
