<svg xmlns="http://www.w3.org/2000/svg" xmlns:xlink="http://www.w3.org/1999/xlink" width="440.848" height="452.809" viewBox="0 0 440.848 452.809">
  <defs>
    <filter id="Rectangle_3" x="75.546" y="392.536" width="36.117" height="60.273" filterUnits="userSpaceOnUse">
      <feOffset dy="3" input="SourceAlpha"/>
      <feGaussianBlur stdDeviation="3" result="blur"/>
      <feFlood flood-opacity="0.161"/>
      <feComposite operator="in" in2="blur"/>
      <feComposite in="SourceGraphic"/>
    </filter>
    <filter id="Rectangle_4" x="99.702" y="392.536" width="36.117" height="60.273" filterUnits="userSpaceOnUse">
      <feOffset dy="3" input="SourceAlpha"/>
      <feGaussianBlur stdDeviation="3" result="blur-2"/>
      <feFlood flood-opacity="0.161"/>
      <feComposite operator="in" in2="blur-2"/>
      <feComposite in="SourceGraphic"/>
    </filter>
    <filter id="Ellipse_11" x="27.234" y="157.015" width="114.624" height="114.624" filterUnits="userSpaceOnUse">
      <feOffset dy="3" input="SourceAlpha"/>
      <feGaussianBlur stdDeviation="3" result="blur-3"/>
      <feFlood flood-opacity="0.161"/>
      <feComposite operator="in" in2="blur-3"/>
      <feComposite in="SourceGraphic"/>
    </filter>
    <filter id="Ellipse_13" x="298.99" y="157.015" width="114.624" height="114.624" filterUnits="userSpaceOnUse">
      <feOffset dy="3" input="SourceAlpha"/>
      <feGaussianBlur stdDeviation="3" result="blur-4"/>
      <feFlood flood-opacity="0.161"/>
      <feComposite operator="in" in2="blur-4"/>
      <feComposite in="SourceGraphic"/>
    </filter>
    <filter id="Ellipse_7" x="39.312" y="36.234" width="60.273" height="60.273" filterUnits="userSpaceOnUse">
      <feOffset dy="3" input="SourceAlpha"/>
      <feGaussianBlur stdDeviation="3" result="blur-5"/>
      <feFlood flood-opacity="0.161"/>
      <feComposite operator="in" in2="blur-5"/>
      <feComposite in="SourceGraphic"/>
    </filter>
    <filter id="Ellipse_6" x="21.195" y="0" width="48.195" height="48.195" filterUnits="userSpaceOnUse">
      <feOffset dy="3" input="SourceAlpha"/>
      <feGaussianBlur stdDeviation="3" result="blur-6"/>
      <feFlood flood-opacity="0.161"/>
      <feComposite operator="in" in2="blur-6"/>
      <feComposite in="SourceGraphic"/>
    </filter>
    <filter id="Ellipse_14" x="341.263" y="36.234" width="60.273" height="60.273" filterUnits="userSpaceOnUse">
      <feOffset dy="3" input="SourceAlpha"/>
      <feGaussianBlur stdDeviation="3" result="blur-7"/>
      <feFlood flood-opacity="0.161"/>
      <feComposite operator="in" in2="blur-7"/>
      <feComposite in="SourceGraphic"/>
    </filter>
    <filter id="Ellipse_15" x="377.497" y="0" width="48.195" height="48.195" filterUnits="userSpaceOnUse">
      <feOffset dy="3" input="SourceAlpha"/>
      <feGaussianBlur stdDeviation="3" result="blur-8"/>
      <feFlood flood-opacity="0.161"/>
      <feComposite operator="in" in2="blur-8"/>
      <feComposite in="SourceGraphic"/>
    </filter>
  </defs>
  <g id="logo" transform="translate(0 6)">
    <g id="mouth" transform="translate(0 368.38)">
      <rect id="Rectangle_1" data-name="Rectangle 1" width="434.809" height="66.429" rx="5.5" fill="#fff"/>
      <g transform="matrix(1, 0, 0, 1, 0, -374.38)" filter="url(#Rectangle_3)">
        <path id="Rectangle_3-2" data-name="Rectangle 3" d="M6.039,0h6.039a6.039,6.039,0,0,1,6.039,6.039V42.273H0V6.039A6.039,6.039,0,0,1,6.039,0Z" transform="translate(84.55 398.54)" fill="#262626"/>
      </g>
      <g transform="matrix(1, 0, 0, 1, 0, -374.38)" filter="url(#Rectangle_4)">
        <path id="Rectangle_4-2" data-name="Rectangle 4" d="M6.039,0h6.039a6.039,6.039,0,0,1,6.039,6.039V42.273H0V6.039A6.039,6.039,0,0,1,6.039,0Z" transform="translate(108.7 398.54)" fill="#262626"/>
      </g>
    </g>
    <g id="eyes" transform="translate(0 114.741)">
      <g id="left_eye" data-name="left eye" transform="translate(0 0)">
        <circle id="Ellipse_12" data-name="Ellipse 12" cx="87.566" cy="87.566" r="87.566" fill="#fff"/>
        <g transform="matrix(1, 0, 0, 1, 0, -120.74)" filter="url(#Ellipse_11)">
          <ellipse id="Ellipse_11-2" data-name="Ellipse 11" cx="48.312" cy="48.312" rx="48.312" ry="48.312" transform="translate(36.23 163.01)" fill="#89eca3"/>
        </g>
      </g>
      <g id="right_eye" data-name="right eye" transform="translate(265.717 0)">
        <circle id="Ellipse_4" data-name="Ellipse 4" cx="87.566" cy="87.566" r="87.566" fill="#fff"/>
        <g transform="matrix(1, 0, 0, 1, -265.72, -120.74)" filter="url(#Ellipse_13)">
          <ellipse id="Ellipse_13-2" data-name="Ellipse 13" cx="48.312" cy="48.312" rx="48.312" ry="48.312" transform="translate(307.99 163.01)" fill="#89eca3"/>
        </g>
      </g>
    </g>
    <g id="eyebrows" transform="translate(30.195 0)">
      <g id="left_eyebrow" data-name="left eyebrow" transform="translate(0 0)">
        <g transform="matrix(1, 0, 0, 1, -30.2, -6)" filter="url(#Ellipse_7)">
          <ellipse id="Ellipse_7-2" data-name="Ellipse 7" cx="21.137" cy="21.137" rx="21.137" ry="21.137" transform="translate(48.31 42.23)" fill="#fff"/>
        </g>
        <g transform="matrix(1, 0, 0, 1, -30.2, -6)" filter="url(#Ellipse_6)">
          <ellipse id="Ellipse_6-2" data-name="Ellipse 6" cx="15.098" cy="15.098" rx="15.098" ry="15.098" transform="translate(30.2 6)" fill="#fff"/>
        </g>
        <line id="Line_4" data-name="Line 4" x2="18.117" y2="24.156" transform="translate(21.137 27.176)" fill="none"/>
      </g>
      <g id="right_eyebrow" data-name="right eyebrow" transform="translate(320.068 0)">
        <g transform="matrix(1, 0, 0, 1, -350.26, -6)" filter="url(#Ellipse_14)">
          <ellipse id="Ellipse_14-2" data-name="Ellipse 14" cx="21.137" cy="21.137" rx="21.137" ry="21.137" transform="translate(350.26 42.23)" fill="#fff"/>
        </g>
        <g transform="matrix(1, 0, 0, 1, -350.26, -6)" filter="url(#Ellipse_15)">
          <ellipse id="Ellipse_15-2" data-name="Ellipse 15" cx="15.098" cy="15.098" rx="15.098" ry="15.098" transform="translate(386.5 6)" fill="#fff"/>
        </g>
        <line id="Line_5" data-name="Line 5" x1="24.156" y2="24.156" transform="translate(21.137 27.176)" fill="none"/>
      </g>
    </g>
  </g>
</svg>
