<svg xmlns="http://www.w3.org/2000/svg" xmlns:xlink="http://www.w3.org/1999/xlink" width="160.944" height="62.009" viewBox="0 0 160.944 62.009">
  <defs>
    <filter id="Rectangle_3" x="5.501" y="39.731" width="19.834" height="22.279" filterUnits="userSpaceOnUse">
      <feOffset dy="3" input="SourceAlpha"/>
      <feGaussianBlur stdDeviation="3" result="blur"/>
      <feFlood flood-opacity="0.161"/>
      <feComposite operator="in" in2="blur"/>
      <feComposite in="SourceGraphic"/>
    </filter>
    <filter id="Rectangle_4" x="7.946" y="39.731" width="19.834" height="22.279" filterUnits="userSpaceOnUse">
      <feOffset dy="3" input="SourceAlpha"/>
      <feGaussianBlur stdDeviation="3" result="blur-2"/>
      <feFlood flood-opacity="0.161"/>
      <feComposite operator="in" in2="blur-2"/>
      <feComposite in="SourceGraphic"/>
    </filter>
    <filter id="Ellipse_11" x="0.611" y="15.892" width="27.78" height="27.78" filterUnits="userSpaceOnUse">
      <feOffset dy="3" input="SourceAlpha"/>
      <feGaussianBlur stdDeviation="3" result="blur-3"/>
      <feFlood flood-opacity="0.161"/>
      <feComposite operator="in" in2="blur-3"/>
      <feComposite in="SourceGraphic"/>
    </filter>
    <filter id="Ellipse_13" x="28.117" y="15.892" width="27.78" height="27.78" filterUnits="userSpaceOnUse">
      <feOffset dy="3" input="SourceAlpha"/>
      <feGaussianBlur stdDeviation="3" result="blur-4"/>
      <feFlood flood-opacity="0.161"/>
      <feComposite operator="in" in2="blur-4"/>
      <feComposite in="SourceGraphic"/>
    </filter>
    <filter id="Ellipse_7" x="1.834" y="3.667" width="22.279" height="22.279" filterUnits="userSpaceOnUse">
      <feOffset dy="3" input="SourceAlpha"/>
      <feGaussianBlur stdDeviation="3" result="blur-5"/>
      <feFlood flood-opacity="0.161"/>
      <feComposite operator="in" in2="blur-5"/>
      <feComposite in="SourceGraphic"/>
    </filter>
    <filter id="Ellipse_6" x="0" y="0" width="21.056" height="21.056" filterUnits="userSpaceOnUse">
      <feOffset dy="3" input="SourceAlpha"/>
      <feGaussianBlur stdDeviation="3" result="blur-6"/>
      <feFlood flood-opacity="0.161"/>
      <feComposite operator="in" in2="blur-6"/>
      <feComposite in="SourceGraphic"/>
    </filter>
    <filter id="Ellipse_14" x="32.396" y="3.667" width="22.279" height="22.279" filterUnits="userSpaceOnUse">
      <feOffset dy="3" input="SourceAlpha"/>
      <feGaussianBlur stdDeviation="3" result="blur-7"/>
      <feFlood flood-opacity="0.161"/>
      <feComposite operator="in" in2="blur-7"/>
      <feComposite in="SourceGraphic"/>
    </filter>
    <filter id="Ellipse_15" x="36.063" y="0" width="21.056" height="21.056" filterUnits="userSpaceOnUse">
      <feOffset dy="3" input="SourceAlpha"/>
      <feGaussianBlur stdDeviation="3" result="blur-8"/>
      <feFlood flood-opacity="0.161"/>
      <feComposite operator="in" in2="blur-8"/>
      <feComposite in="SourceGraphic"/>
    </filter>
  </defs>
  <g id="logo-nav" transform="translate(-137.056 -34)">
    <g id="logo" transform="translate(-170 -129)">
      <g id="mouth" transform="translate(313 206.286)">
        <rect id="Rectangle_1" data-name="Rectangle 1" width="44.009" height="6.724" rx="3.362" fill="#fff"/>
        <g transform="matrix(1, 0, 0, 1, -5.94, -43.29)" filter="url(#Rectangle_3)">
          <path id="Rectangle_3-2" data-name="Rectangle 3" d="M.611,0h.611a.611.611,0,0,1,.611.611V4.279H0V.611A.611.611,0,0,1,.611,0Z" transform="translate(14.5 45.73)" fill="#262626"/>
        </g>
        <g transform="matrix(1, 0, 0, 1, -5.94, -43.29)" filter="url(#Rectangle_4)">
          <path id="Rectangle_4-2" data-name="Rectangle 4" d="M.611,0h.611a.611.611,0,0,1,.611.611V4.279H0V.611A.611.611,0,0,1,.611,0Z" transform="translate(16.95 45.73)" fill="#262626"/>
        </g>
      </g>
      <g id="eyes" transform="translate(313 180.614)">
        <g id="left_eye" data-name="left eye" transform="translate(0 0)">
          <circle id="Ellipse_12" data-name="Ellipse 12" cx="8.863" cy="8.863" r="8.863" fill="#fff"/>
          <g transform="matrix(1, 0, 0, 1, -5.94, -17.61)" filter="url(#Ellipse_11)">
            <circle id="Ellipse_11-2" data-name="Ellipse 11" cx="4.89" cy="4.89" r="4.89" transform="translate(9.61 21.89)" fill="#89eca3"/>
          </g>
        </g>
        <g id="right_eye" data-name="right eye" transform="translate(26.895 0)">
          <circle id="Ellipse_4" data-name="Ellipse 4" cx="8.863" cy="8.863" r="8.863" fill="#fff"/>
          <g transform="matrix(1, 0, 0, 1, -32.84, -17.61)" filter="url(#Ellipse_13)">
            <circle id="Ellipse_13-2" data-name="Ellipse 13" cx="4.89" cy="4.89" r="4.89" transform="translate(37.12 21.89)" fill="#89eca3"/>
          </g>
        </g>
      </g>
      <g id="eyebrows" transform="translate(316.056 169)">
        <g id="left_eyebrow" data-name="left eyebrow" transform="translate(0 0)">
          <g transform="matrix(1, 0, 0, 1, -9, -6)" filter="url(#Ellipse_7)">
            <circle id="Ellipse_7-2" data-name="Ellipse 7" cx="2.139" cy="2.139" r="2.139" transform="translate(10.83 9.67)" fill="#fff"/>
          </g>
          <g transform="matrix(1, 0, 0, 1, -9, -6)" filter="url(#Ellipse_6)">
            <circle id="Ellipse_6-2" data-name="Ellipse 6" cx="1.528" cy="1.528" r="1.528" transform="translate(9 6)" fill="#fff"/>
          </g>
          <line id="Line_4" data-name="Line 4" x2="1.834" y2="2.445" transform="translate(2.139 2.751)" fill="none" stroke="#fefcfc" stroke-width="1"/>
        </g>
        <g id="right_eyebrow" data-name="right eyebrow" transform="translate(32.396 0)">
          <g transform="matrix(1, 0, 0, 1, -41.4, -6)" filter="url(#Ellipse_14)">
            <circle id="Ellipse_14-2" data-name="Ellipse 14" cx="2.139" cy="2.139" r="2.139" transform="translate(41.4 9.67)" fill="#fff"/>
          </g>
          <g transform="matrix(1, 0, 0, 1, -41.4, -6)" filter="url(#Ellipse_15)">
            <circle id="Ellipse_15-2" data-name="Ellipse 15" cx="1.528" cy="1.528" r="1.528" transform="translate(45.06 6)" fill="#fff"/>
          </g>
          <line id="Line_5" data-name="Line 5" x1="2.445" y2="2.445" transform="translate(2.139 2.751)" fill="none" stroke="#fefcfc" stroke-width="1"/>
        </g>
      </g>
    </g>
    <text id="Tiania" transform="translate(204 79)" fill="#fff" font-size="31" font-family="Montserrat-Medium, Montserrat" font-weight="500"><tspan x="0" y="0">Tiania</tspan></text>
  </g>
</svg>
